<svg id="a933b482-b191-4d53-a79f-90ab624d513f" data-name="Layer 1" xmlns="http://www.w3.org/2000/svg" xmlns:xlink="http://www.w3.org/1999/xlink" width="865.76" height="682.89" viewBox="0 0 865.76 682.89"><defs><clipPath id="b5e02c97-97e6-4467-be4f-b0cce5af30bf"><circle id="bace0010-d6ac-4662-90cf-db99c8739d74" data-name="SVGID" cx="510.14" cy="417.8" r="15.74" fill="#fff"/></clipPath><clipPath id="edfe23a0-9087-400d-9068-00f36d95d57f"><circle id="b105d6fe-f0ff-4bff-a7e5-c4f864c5ec61" data-name="SVGID" cx="516.25" cy="142.15" r="20.36" fill="#fff"/></clipPath></defs><path d="M272.92,200.44l-9.36,24.21,24,18.09s14.63-.26,20.75-2.12,6.39-19,6.39-19l-7.45-21.15-10.91-6.18Z" fill="#f9b499"/><path d="M246.49,108.35S219.6,104,214.38,133.19a34.67,34.67,0,0,0,5.81,25.92,18.86,18.86,0,0,1-4.63,26.55c-.54.36-1.11.71-1.71,1.06,0,0-28.2,4.35-21.67,31.33,0,0,1.74,6.61,5.23,16.58,0,0,.64,14.76-6.21,26.07,0,0-16.43,22.2,9.25,23.51,0,0,5.51-36.56,31.63-51.36,0,0,21.59-10.92,34.35-12.09a6.5,6.5,0,0,0,4.68-2.61c1.95-2.67,4.28-7.21,2.8-12.41a47.82,47.82,0,0,1-25.45-27.57s-7.31,1.69-9-8.81c0,0-1.34-6.55,4.32-8.81,0,0-4.26-20.19,8.93-35.31C252.76,125.24,246.39,115.94,246.49,108.35Z" fill="#2f2e41"/><path d="M239,136.81a51.44,51.44,0,0,0-3,6.37,60.73,60.73,0,0,0-2.21,6.68,64.73,64.73,0,0,0-1.46,6.88,62.7,62.7,0,0,0-.68,7,58.56,58.56,0,0,0,.18,7l.17,1.74c.06.58.17,1.16.24,1.74.14,1.16.4,2.3.6,3.45a59.87,59.87,0,0,0,4.53,13.22l0,0a36.32,36.32,0,0,1,4.08,9,21,21,0,0,1,.7,9.88,14.28,14.28,0,0,1-1.81,4.68,15.07,15.07,0,0,1-3.32,3.75,15.8,15.8,0,0,1-4.3,2.53,18.33,18.33,0,0,1-2.38.77c-.82.21-1.6.34-2.38.56a26.9,26.9,0,0,0-8.7,4.05,24.64,24.64,0,0,0-6.56,7,31.32,31.32,0,0,0-2.18,4.33,33.73,33.73,0,0,0-1.45,4.64,45.5,45.5,0,0,0-1.07,9.68,43.15,43.15,0,0,1,.79-9.75,29.82,29.82,0,0,1,3.49-9.16,25.07,25.07,0,0,1,6.6-7.28,27.15,27.15,0,0,1,8.88-4.28c.8-.23,1.62-.38,2.38-.58a18.22,18.22,0,0,0,2.27-.74,15.05,15.05,0,0,0,4.08-2.43,14.24,14.24,0,0,0,3.11-3.55,13.14,13.14,0,0,0,1.67-4.4,20.38,20.38,0,0,0-.71-9.45,35.13,35.13,0,0,0-3.92-8.78l0,0v0a61.13,61.13,0,0,1-4.53-13.44,57.38,57.38,0,0,1-1-7,58.94,58.94,0,0,1,2.33-21,60.71,60.71,0,0,1,2.39-6.66A46.47,46.47,0,0,1,239,136.81Z" opacity="0.2"/><path d="M273.91,205.74c-20.26-8.83-27-30.77-27-30.77-7.8-22.2-.43-39.62-.43-39.62-24.19,38.29,4.18,64.71,4.18,64.71,16.66,16.61-5,26.7-5,26.7s12.45-5,19-5.79c0,0,5.39.69,7.41-4.3A13.67,13.67,0,0,0,273.91,205.74Z" fill="#3f3d56"/><path d="M273.91,205.74c-20.26-8.83-27-30.77-27-30.77-7.8-22.2-.43-39.62-.43-39.62-24.19,38.29,4.18,64.71,4.18,64.71,16.66,16.61-5,26.7-5,26.7s12.45-5,19-5.79c0,0,5.39.69,7.41-4.3A13.67,13.67,0,0,0,273.91,205.74Z" opacity="0.2"/><path d="M381.07,284.21s-8.71-36.27-25.68-49.58c0,0-17.85-15.27-48.53-14.84,0,0-6.08-10.46-3.47-20,0,0,17.18-14.62,5.86-50.39,0,0,14.38,6.23,12,27.34,0,0-1.11,19.7,19.87,40.08l10.42,9.3s21.79,18.71,28.39,43.2l2.46,7.52s1.59,3.62,4.79,3.53Z" fill="#2f2e41"/><path d="M381.07,284.21s-8.71-36.27-25.68-49.58c0,0-17.85-15.27-48.53-14.84,0,0-6.08-10.46-3.47-20,0,0,17.18-14.62,5.86-50.39,0,0,14.38,6.23,12,27.34,0,0-1.11,19.7,19.87,40.08l10.42,9.3s21.79,18.71,28.39,43.2l2.46,7.52s1.59,3.62,4.79,3.53Z" opacity="0.2"/><path d="M263.56,92.28a40.27,40.27,0,0,1,4.55-3.81,54.59,54.59,0,0,1,5-3.24,58.46,58.46,0,0,1,5.3-2.68,55.06,55.06,0,0,1,5.58-2.1,53.83,53.83,0,0,1,11.67-2.29,55.09,55.09,0,0,1,11.9.37h0a44.33,44.33,0,0,1,8.25,1.65,55.08,55.08,0,0,1,7.83,3,52.75,52.75,0,0,1,7.27,4.23,51.31,51.31,0,0,1,11.94,11.77,56,56,0,0,1,4.37,7.19,66.33,66.33,0,0,1,5.61,15.81c.31,1.37.54,2.75.81,4.13.15.68.22,1.38.32,2.07l.28,2.08a71.25,71.25,0,0,1,.61,8.38c.05,2.8,0,5.61-.24,8.4-.1,1.39-.26,2.8-.37,4.17s-.18,2.76-.2,4.14A59.42,59.42,0,0,0,356,172a46.52,46.52,0,0,0,7,14.9A44,44,0,0,0,375,198.24q1.75,1.11,3.6,2c1.24.63,2.5,1.17,3.78,1.74,2.55,1.15,5.06,2.4,7.52,3.72a108.16,108.16,0,0,1,14.14,9,73.41,73.41,0,0,1,12.17,11.53,44.47,44.47,0,0,1,8.19,14.59,34.37,34.37,0,0,1,1.09,16.63,47.06,47.06,0,0,1-6,15.57,73.78,73.78,0,0,1-4.71,6.91c-1.69,2.22-3.52,4.33-5.4,6.39,1.85-2.08,3.66-4.21,5.32-6.44a74.94,74.94,0,0,0,4.62-7,46.57,46.57,0,0,0,5.8-15.53A34.45,34.45,0,0,0,423.88,241a43.76,43.76,0,0,0-8.18-14.34,72.44,72.44,0,0,0-12.13-11.34,111.26,111.26,0,0,0-14.07-8.91c-2.45-1.31-4.94-2.54-7.48-3.67-1.26-.56-2.56-1.12-3.81-1.75s-2.49-1.32-3.68-2.07a44.67,44.67,0,0,1-12.19-11.54,47.43,47.43,0,0,1-7.2-15.18,59,59,0,0,1-2-16.67c0-1.41.1-2.81.21-4.21s.28-2.77.38-4.16c.21-2.76.3-5.54.26-8.31a71.71,71.71,0,0,0-.59-8.29l-.28-2.07c-.09-.68-.16-1.37-.31-2-.26-1.36-.48-2.73-.79-4.09a65.17,65.17,0,0,0-5.51-15.63,55.05,55.05,0,0,0-4.28-7.1,53.86,53.86,0,0,0-5.37-6.32A53,53,0,0,0,330.49,88a52.45,52.45,0,0,0-14.88-7.26A42.85,42.85,0,0,0,307.5,79h0a56.78,56.78,0,0,0-11.8-.47,53.36,53.36,0,0,0-11.62,2.14,57.83,57.83,0,0,0-5.57,2,57,57,0,0,0-5.32,2.62,54.37,54.37,0,0,0-5,3.17A41.34,41.34,0,0,0,263.56,92.28Z" fill="#3f3d56"/><path d="M186,262.45a11.91,11.91,0,0,1-1.16-4.38,17.7,17.7,0,0,1,.21-4.54l.21-1.12c.09-.37.19-.74.29-1.11.17-.74.46-1.44.7-2.17s.59-1.4.88-2.1l1-2h0A15.61,15.61,0,0,0,190,241.4a26,26,0,0,0,1.07-3.89,34.3,34.3,0,0,0,.5-8c-.05-.67-.08-1.35-.14-2l-.26-2c0-.33-.08-.67-.13-1l-.2-1-.39-2c-.31-1.31-.69-2.6-1-3.91l-1.28-3.83v0a24.22,24.22,0,0,1-2.32-8.21,18.3,18.3,0,0,1,1.06-8.45c.14-.33.26-.67.42-1l.48-1a16.39,16.39,0,0,1,1.15-1.82,19.7,19.7,0,0,1,1.35-1.67c.51-.5,1-1,1.54-1.49a27.42,27.42,0,0,1,7.26-4.51h0a32.55,32.55,0,0,0,7.48-2.55,18.55,18.55,0,0,0,6.26-4.68,10.37,10.37,0,0,0,2.42-7.23,17.71,17.71,0,0,0-2.39-7.43l0,0a35.55,35.55,0,0,1-3.54-5.11,44.25,44.25,0,0,1-2.7-5.59,41.88,41.88,0,0,1-1.85-5.92c-.25-1-.42-2-.6-3s-.28-2-.34-3.09c0-.51-.08-1-.08-1.55s0-1,0-1.55c0-1,0-2.07.14-3.1s.23-2,.37-3.08c.07-.51.19-1,.28-1.52s.19-1,.33-1.52a48.24,48.24,0,0,1,4.46-11.53,45.23,45.23,0,0,1,3.27-5.26,30.19,30.19,0,0,1,4.19-4.56,29.3,29.3,0,0,1,5.06-3.58,28.07,28.07,0,0,1,5.73-2.35,24.86,24.86,0,0,1,18.1,1.49,33.71,33.71,0,0,1,5.24,3.26,33,33,0,0,0-5.27-3.21,25,25,0,0,0-5.83-1.95,25.25,25.25,0,0,0-12.18.61A28.45,28.45,0,0,0,222,104a28.76,28.76,0,0,0-5,3.55,30.67,30.67,0,0,0-4.14,4.53,46.06,46.06,0,0,0-3.23,5.24,48.22,48.22,0,0,0-4.4,11.47c-.14.49-.21,1-.32,1.5s-.21,1-.27,1.52c-.14,1-.3,2-.36,3s-.11,2.05-.13,3.07c0,.52,0,1,0,1.54s0,1,.09,1.53c.06,1,.21,2,.34,3.06s.36,2,.61,3a41.11,41.11,0,0,0,1.85,5.86,42.12,42.12,0,0,0,2.69,5.53,33.64,33.64,0,0,0,3.5,5v0h0a18.15,18.15,0,0,1,2.46,7.63,10.94,10.94,0,0,1-.55,4,11.54,11.54,0,0,1-2,3.52,19.11,19.11,0,0,1-6.43,4.78,32.64,32.64,0,0,1-7.59,2.56h0a27.44,27.44,0,0,0-7.17,4.43,21,21,0,0,0-1.52,1.46,19,19,0,0,0-1.33,1.64,17.13,17.13,0,0,0-1.13,1.77l-.47.94c-.16.31-.28.65-.41,1a18,18,0,0,0-1.07,8.29,23.78,23.78,0,0,0,2.27,8.1v0h0l1.28,3.85c.34,1.31.71,2.61,1,3.93l.39,2,.19,1c.05.33.09.67.13,1l.26,2c.06.67.08,1.35.13,2a33.69,33.69,0,0,1-.54,8.08,24.91,24.91,0,0,1-1.1,3.91,15.82,15.82,0,0,1-1.84,3.62h0l-1.05,2c-.29.69-.62,1.38-.89,2.09s-.54,1.41-.72,2.15c-.1.37-.21.73-.3,1.1l-.22,1.11a18.07,18.07,0,0,0-.24,4.53A11.91,11.91,0,0,0,186,262.45Z" fill="#3f3d56"/><path d="M230.2,373.78s-42.37,1.74-41.93-23.94c0,0,7.2-55.5,13.87-73.17,0,0,5.8-47.54,64.29-55.91l2.71-.68s3.77,18.43,23.58,15.6c0,0,14.58-1.74,14.14-15.89,0,0,40.57-3,57.9,25.38,0,0,20.39,32,24.53,75.66q.52,5.52,1.46,11c2.15,12.31,4.38,44.84-32.75,42Z" fill="#f76d11"/><rect x="412.94" y="590.36" width="412.7" height="7.64" fill="#ccc"/><rect x="40.12" y="374.02" width="412.7" height="7.64" fill="#ccc"/><path d="M692.56,395.72l-8.25,16.5s10.65,19.16,51.89-3.46L728,385.34Z" fill="#f9b499"/><path d="M764.14,536.48c-38.32,14.77-77,11.57-77,11.57l-.4,25.55c17.16,16.76,46.7,22.35,46.7,22.35l2,.45a67.05,67.05,0,0,0,81.07-58.31c7.84-72.09-21.17-109-21.17-109-17.56-22.35-60-23.11-60-23.11-37.29,25.58-49.72,3.82-49.72,3.82-21.55.27-45.1,11.71-45.1,11.71-8,5.59-33.53,67.45-33.53,67.45l33.57,95.26,51.08,2.8,12,.79,6.75-15.16" fill="#f76d11"/><path d="M218.36,274.74,230,372.47a1.55,1.55,0,0,0,1.56,1.37l123.74.16a1.56,1.56,0,0,0,1.52-1.36l11.95-97.89a3.59,3.59,0,0,0-3.57-4H221.93A3.61,3.61,0,0,0,218.36,274.74Z" fill="#2f2e41"/><path d="M163.17,326.07c.18,4.57-16.07,8.9-36.28,9.68s-36.74-2.3-36.91-6.87a2,2,0,0,1,.08-.64c1.27-4.32,16.93-8.29,36.19-9,19-.73,34.77,1.94,36.72,6.07A2,2,0,0,1,163.17,326.07Z" fill="#ccc"/><path d="M164.71,327.63c.17,4.57-16.7,8.92-37.68,9.73s-38.14-2.25-38.31-6.81a3,3,0,0,1,1.34-2.31,2,2,0,0,0-.08.64c.17,4.57,16.7,7.64,36.91,6.87s36.46-5.11,36.28-9.68a2,2,0,0,0-.2-.79A3.18,3.18,0,0,1,164.71,327.63Z" fill="#2f2e41"/><path d="M164.71,327.63c.17,4.57-16.7,8.92-37.68,9.73s-38.14-2.25-38.31-6.81a3,3,0,0,1,1.34-2.31,2,2,0,0,0-.08.64c.17,4.57,16.7,7.64,36.91,6.87s36.46-5.11,36.28-9.68a2,2,0,0,0-.2-.79A3.18,3.18,0,0,1,164.71,327.63Z" opacity="0.2"/><path d="M164.08,330.07s-4.71,6.88-40.51,8.22c0,0-33.14.66-34.85-6.9,0,0-.24.86-.49,2.34h0s-14.16-9.5-21.61,4.59c0,0-9.48,19,29.21,23h0c4,4.34,10,8.19,18.67,10.73,0,0,23.06,8.7,43.74-13.5C158.24,358.56,168,344.44,164.08,330.07ZM91,356.06c-27.31-7.12-19.47-17-19.47-17,3.21-5.11,9.16-2.59,12.75-.37a28,28,0,0,0,3.52,1.84,32.27,32.27,0,0,0,4.16,15.56Z" fill="#2f2e41"/><path d="M755.76,466.63c-.76,5.68-1.17,11.39-1.4,17.09-.11,2.86-.16,5.71-.17,8.56l0,4.28.14,4.28c.22,5.7.61,11.4,1.29,17.07.28,2.84.72,5.66,1.12,8.5.16,1.42.45,2.82.68,4.23s.48,2.82.7,4.24c-.37-1.38-.73-2.77-1.08-4.16s-.71-2.78-1-4.19l-.83-4.23-.21-1-.16-1.07-.32-2.13c-.2-1.42-.46-2.84-.6-4.27l-.45-4.28-.11-1.08-.08-1.07-.14-2.15c-.09-1.44-.2-2.87-.23-4.31a150.09,150.09,0,0,1,.32-17.23A109.75,109.75,0,0,1,755.76,466.63Z" opacity="0.2"/><path d="M646.4,463.44c-.41,6.67-1.14,13.33-2.07,20s-2,13.23-3.43,19.78-3,13.07-5,19.46a117.19,117.19,0,0,1-7.46,18.63c.6-1.56,1.21-3.12,1.84-4.66.33-.77.58-1.57.85-2.36l.8-2.37c.26-.79.56-1.56.8-2.36l.72-2.4c.46-1.6,1-3.17,1.4-4.79l1.31-4.83,1.18-4.85c.41-1.62.77-3.25,1.13-4.87s.75-3.25,1.06-4.89l1-4.9.94-4.91q.93-4.92,1.77-9.85l.42-2.47.41-2.47c.28-1.64.54-3.29.79-4.94C645.44,470.05,645.91,466.75,646.4,463.44Z" opacity="0.2"/><polygon points="687.05 552.06 634.82 556.43 644.4 579.19 687.05 571.2 687.05 552.06" fill="#f9b499"/><path d="M508.1,587.17l-39.28-90.61a9.28,9.28,0,0,1,8.51-13H598.19a12.75,12.75,0,0,1,11.87,8.1l36.34,92.68,69-1.13A3.56,3.56,0,0,1,719,586.8h0a3.56,3.56,0,0,1-3.56,3.56H514.17a7.35,7.35,0,0,1-6.07-3.19Z" fill="#2f2e41"/><circle cx="546.15" cy="537.23" r="10.72" fill="#fff"/><path d="M603.69,387.6H489.54a5.59,5.59,0,0,0-5.59,5.59v47.9a5.58,5.58,0,0,0,5.59,5.58h11.57V461l10-14.37h92.55a5.58,5.58,0,0,0,5.59-5.58v-47.9A5.59,5.59,0,0,0,603.69,387.6Z" fill="#2f2e41"/><circle id="a0939f5d-94a7-4c5d-837b-fd65c6c697cb" data-name="SVGID" cx="510.14" cy="417.8" r="15.74" fill="#fff"/><g clip-path="url(#b5e02c97-97e6-4467-be4f-b0cce5af30bf)"><path d="M509.57,419.7l-1.11,2.87,2.84,2.14a13.36,13.36,0,0,0,2.46-.25c.72-.22.75-2.25.75-2.25l-.88-2.51-1.29-.73Z" fill="#f9b499"/><ellipse cx="510.19" cy="415.2" rx="3.98" ry="5.52" transform="translate(-103.07 177.29) rotate(-17.94)" fill="#f9b499"/><path d="M506.53,408.28c.33-1.06,1.48-2.61,5.38-2.15,0,0,7.47.1,6.54,8,0,0-1.35,4.17,3.49,6.35a9.35,9.35,0,0,1,3,2.1,8.26,8.26,0,0,1,1.27,1.71,3.19,3.19,0,0,1-1,4.08c-.88.61-2.21,1.39-2.68.39,0,0-.16-.55-.45-1.32a11.92,11.92,0,0,0-3.61-5c-1.38-1.16-3.42-3.33-3.15-6a3,3,0,0,0-2.38-3.08,4.39,4.39,0,0,0-1.08-.1,5.35,5.35,0,0,1-5.24-3.48A2,2,0,0,1,506.53,408.28Z" fill="#2f2e41"/><path d="M509.28,407.88a2.26,2.26,0,0,0,.11.37.91.91,0,0,0,.09.17l.09.17.11.16a.56.56,0,0,0,.05.08l.07.08.12.15.13.13a5.84,5.84,0,0,0,1.22.94l.34.19a3.65,3.65,0,0,0,.34.18c.24.1.47.22.71.31l.36.14.09,0,.09,0,.19.06.73.24a4.54,4.54,0,0,1,2.38,1.95,4.43,4.43,0,0,1,.56,3h0a5.58,5.58,0,0,0,0,1,8.58,8.58,0,0,0,.18,1,8.16,8.16,0,0,0,.32,1,7.56,7.56,0,0,0,.45.9,6.79,6.79,0,0,0,1.27,1.56,7.89,7.89,0,0,0,1.66,1.14,8,8,0,0,1-1.69-1.11,6.66,6.66,0,0,1-1.3-1.55,6.73,6.73,0,0,1-.8-1.87,8.4,8.4,0,0,1-.19-1,5.77,5.77,0,0,1,0-1h0a4.62,4.62,0,0,0,0-1.53,4.53,4.53,0,0,0-.54-1.42,4.48,4.48,0,0,0-2.32-1.92l-.73-.25-.19-.06-.09,0-.09,0-.36-.14c-.24-.09-.47-.21-.71-.32a3.65,3.65,0,0,1-.34-.18l-.34-.19a6,6,0,0,1-1.21-1l-.14-.14-.12-.16-.06-.07,0-.09-.11-.16-.09-.17-.08-.18A2.24,2.24,0,0,1,509.28,407.88Z" opacity="0.2"/><path d="M506.44,408.8a3.32,3.32,0,0,0-3.8,2.94,4.1,4.1,0,0,0,.69,3.07,2.23,2.23,0,0,1-.55,3.14l-.2.13s-3.34.51-2.57,3.71c0,0,.21.78.62,2a6.25,6.25,0,0,1-.73,3.09s-1.95,2.62,1.09,2.78c0,0,.65-4.33,3.74-6.08a15.81,15.81,0,0,1,4.07-1.43.76.76,0,0,0,.55-.31,1.7,1.7,0,0,0,.34-1.47,5.66,5.66,0,0,1-3-3.26s-.86.2-1.06-1.05a.94.94,0,0,1,.51-1,5.26,5.26,0,0,1,1.06-4.18A4.37,4.37,0,0,1,506.44,408.8Z" fill="#2f2e41"/><path d="M505.56,412.17a6.73,6.73,0,0,0-.62,1.55,7.27,7.27,0,0,0-.17.81,5.69,5.69,0,0,0-.08.83,7.73,7.73,0,0,0,0,.83l0,.2,0,.21a2.93,2.93,0,0,0,.07.41,7.18,7.18,0,0,0,.53,1.56h0a4.21,4.21,0,0,1,.48,1.06,2.58,2.58,0,0,1,.09,1.17,1.48,1.48,0,0,1-.22.55,1.69,1.69,0,0,1-.39.45,1.76,1.76,0,0,1-.51.3,1.52,1.52,0,0,1-.28.09l-.28.07a2.86,2.86,0,0,0-1,.48,2.81,2.81,0,0,0-.78.83,3.06,3.06,0,0,0-.26.51,4.42,4.42,0,0,0-.17.55,5.46,5.46,0,0,0-.13,1.14,5,5,0,0,1,.1-1.15,3.6,3.6,0,0,1,.41-1.09,3.19,3.19,0,0,1,.78-.86,3.27,3.27,0,0,1,1.05-.5l.28-.07.27-.09a1.86,1.86,0,0,0,.49-.29,1.61,1.61,0,0,0,.36-.42,1.44,1.44,0,0,0,.2-.52,2.51,2.51,0,0,0-.08-1.12,4.43,4.43,0,0,0-.47-1h0a7.45,7.45,0,0,1-.54-1.59,8,8,0,0,1-.11-.84,7.85,7.85,0,0,1,0-.84,7.14,7.14,0,0,1,.29-1.65,7.25,7.25,0,0,1,.28-.78A5.28,5.28,0,0,1,505.56,412.17Z" opacity="0.2"/><path d="M509.69,420.33a6.35,6.35,0,0,1-3.2-3.64,7,7,0,0,1-.05-4.69c-2.87,4.53.49,7.66.49,7.66,2,2-.59,3.16-.59,3.16a12.46,12.46,0,0,1,2.25-.69.84.84,0,0,0,.88-.5A1.65,1.65,0,0,0,509.69,420.33Z" fill="#3f3d56"/><path d="M509.69,420.33a6.35,6.35,0,0,1-3.2-3.64,7,7,0,0,1-.05-4.69c-2.87,4.53.49,7.66.49,7.66,2,2-.59,3.16-.59,3.16a12.46,12.46,0,0,1,2.25-.69.84.84,0,0,0,.88-.5A1.65,1.65,0,0,0,509.69,420.33Z" opacity="0.2"/><path d="M522.37,429.62s-1-4.29-3-5.87a9.09,9.09,0,0,0-5.74-1.76,3.59,3.59,0,0,1-.42-2.37s2-1.73.7-6a3,3,0,0,1,1.42,3.23,6.71,6.71,0,0,0,2.35,4.75l1.23,1.1a11.92,11.92,0,0,1,3.36,5.11l.29.89s.19.43.57.42Z" fill="#2f2e41"/><path d="M522.37,429.62s-1-4.29-3-5.87a9.09,9.09,0,0,0-5.74-1.76,3.59,3.59,0,0,1-.42-2.37s2-1.73.7-6a3,3,0,0,1,1.42,3.23,6.71,6.71,0,0,0,2.35,4.75l1.23,1.1a11.92,11.92,0,0,1,3.36,5.11l.29.89s.19.43.57.42Z" opacity="0.2"/><path d="M508.46,406.9a4.6,4.6,0,0,1,.54-.45,5.36,5.36,0,0,1,.59-.38,4.65,4.65,0,0,1,.63-.32,4.73,4.73,0,0,1,.66-.25,6.48,6.48,0,0,1,1.38-.27,6.65,6.65,0,0,1,1.41,0h0a5.39,5.39,0,0,1,1,.2,5.26,5.26,0,0,1,.93.36,5.67,5.67,0,0,1,.86.5,5.78,5.78,0,0,1,.76.63,6.3,6.3,0,0,1,1.17,1.61,7.86,7.86,0,0,1,.66,1.87c0,.17.07.33.1.49a2.17,2.17,0,0,1,0,.25l0,.24a6.63,6.63,0,0,1,.07,1,8.19,8.19,0,0,1,0,1c0,.16,0,.33,0,.49s0,.33,0,.49a6.73,6.73,0,0,0,.24,1.95,5.47,5.47,0,0,0,.83,1.76,5.14,5.14,0,0,0,1.41,1.34,3.62,3.62,0,0,0,.43.24c.14.08.29.14.44.21.31.14.6.28.89.44a13.28,13.28,0,0,1,1.68,1.07,8.83,8.83,0,0,1,1.44,1.36,5.38,5.38,0,0,1,1,1.73,4.11,4.11,0,0,1,.13,2,5.6,5.6,0,0,1-.72,1.84,6.52,6.52,0,0,1-.55.82c-.2.26-.42.51-.64.76.22-.25.43-.5.63-.77a7.74,7.74,0,0,0,.54-.82,5.54,5.54,0,0,0,.69-1.84,4.11,4.11,0,0,0-.14-1.94,5.25,5.25,0,0,0-1-1.7,8.33,8.33,0,0,0-1.44-1.34,12.92,12.92,0,0,0-1.66-1.05c-.29-.16-.59-.31-.89-.44s-.3-.13-.45-.21a3.62,3.62,0,0,1-.43-.24,5.26,5.26,0,0,1-1.45-1.37,5.67,5.67,0,0,1-.85-1.79,7,7,0,0,1-.24-2c0-.16,0-.33,0-.5s0-.32,0-.49c0-.33,0-.65,0-1a7.93,7.93,0,0,0-.07-1l0-.25a2,2,0,0,0,0-.24l-.09-.49a8.14,8.14,0,0,0-.65-1.85,8.94,8.94,0,0,0-.51-.84,6.41,6.41,0,0,0-.64-.74,5.76,5.76,0,0,0-.75-.64,7.15,7.15,0,0,0-.84-.5,7.31,7.31,0,0,0-.92-.36,5.11,5.11,0,0,0-1-.2h0a7.26,7.26,0,0,0-1.4-.05,5.8,5.8,0,0,0-1.37.25,6.42,6.42,0,0,0-.66.24,6.14,6.14,0,0,0-.63.31,4.67,4.67,0,0,0-.6.38A4.51,4.51,0,0,0,508.46,406.9Z" fill="#2f2e41"/><path d="M499.28,427a1.33,1.33,0,0,1-.13-.51,2,2,0,0,1,0-.54l0-.13,0-.14a2.41,2.41,0,0,1,.08-.25,1.89,1.89,0,0,1,.11-.25l.12-.24h0a1.72,1.72,0,0,0,.21-.43,2.42,2.42,0,0,0,.13-.46,4.3,4.3,0,0,0,.06-.95c0-.08,0-.16,0-.24l0-.23a.5.5,0,0,0,0-.12l0-.12-.05-.23c0-.16-.08-.31-.12-.47l-.15-.45h0a2.7,2.7,0,0,1-.27-1,2.13,2.13,0,0,1,.12-1l.05-.12.06-.11a1.35,1.35,0,0,1,.14-.22,1.39,1.39,0,0,1,.15-.19c.07-.06.12-.13.19-.18a3.2,3.2,0,0,1,.86-.54h0a3.46,3.46,0,0,0,.89-.3,2.24,2.24,0,0,0,.74-.55,1.31,1.31,0,0,0,.22-.4,1.19,1.19,0,0,0,.06-.46,2,2,0,0,0-.28-.88h0a4.07,4.07,0,0,1-.41-.61,4,4,0,0,1-.32-.66,4.37,4.37,0,0,1-.22-.7c0-.12-.05-.24-.07-.36a2.21,2.21,0,0,1,0-.37,1.09,1.09,0,0,1,0-.18c0-.06,0-.12,0-.18s0-.25,0-.37,0-.24,0-.36,0-.13,0-.19a.85.85,0,0,1,0-.17,5.53,5.53,0,0,1,.52-1.37,5,5,0,0,1,.39-.62,3.2,3.2,0,0,1,.5-.54,3.07,3.07,0,0,1,1.27-.7,3,3,0,0,1,1.45-.07,3.4,3.4,0,0,1,.7.24,4.57,4.57,0,0,1,.62.39,3.4,3.4,0,0,0-.63-.38,2.8,2.8,0,0,0-.69-.23,2.94,2.94,0,0,0-1.44.07,3.27,3.27,0,0,0-.67.28,3.51,3.51,0,0,0-.59.42,3.15,3.15,0,0,0-.49.54,4.33,4.33,0,0,0-.39.62,6.5,6.5,0,0,0-.52,1.35l0,.18c0,.06,0,.12,0,.18s0,.24,0,.36,0,.25,0,.37,0,.12,0,.18a1.09,1.09,0,0,0,0,.18c0,.12,0,.24,0,.36s0,.24.07.36a5.54,5.54,0,0,0,.22.69,5,5,0,0,0,.32.66,4.13,4.13,0,0,0,.41.59h0a2.17,2.17,0,0,1,.29.9,1.25,1.25,0,0,1-.07.47,1.22,1.22,0,0,1-.23.42,2.34,2.34,0,0,1-.76.57,4.14,4.14,0,0,1-.9.3h0a3.18,3.18,0,0,0-.84.52c-.07.05-.12.12-.18.17l-.16.2a1.48,1.48,0,0,0-.13.21l-.06.11a1.17,1.17,0,0,1-.05.11,2.21,2.21,0,0,0-.13,1,3.2,3.2,0,0,0,.27,1h0l.16.45.12.47,0,.23,0,.12s0,.08,0,.12l0,.24c0,.08,0,.16,0,.24a3.89,3.89,0,0,1-.07,1,2.64,2.64,0,0,1-.13.46,1.46,1.46,0,0,1-.22.43h0l-.13.24-.1.24a2.67,2.67,0,0,0-.09.26l0,.13,0,.13a2.45,2.45,0,0,0,0,.54A1.53,1.53,0,0,0,499.28,427Z" fill="#2f2e41"/><path d="M504.51,440.22s-5,.21-5-2.83c0,0,.85-6.57,1.64-8.66,0,0,.69-5.63,7.61-6.62l.32-.08a2.4,2.4,0,0,0,2.79,1.85,1.88,1.88,0,0,0,1.68-1.89s4.8-.35,6.85,3a22.27,22.27,0,0,1,2.9,9q.06.65.18,1.29c.25,1.46.51,5.31-3.88,5Z" fill="#f76d11"/><ellipse cx="506.4" cy="416.02" rx="0.77" ry="1.08" transform="matrix(0.97, -0.25, 0.25, 0.97, -89.14, 142.44)" fill="#f9b499"/></g><rect x="531.78" y="404.96" width="65.95" height="2.95" fill="#fff"/><rect x="531.78" y="427.7" width="65.95" height="2.95" fill="#fff"/><rect x="531.78" y="412.45" width="15.18" height="2.95" fill="#fff"/><rect x="531.78" y="419.93" width="34.3" height="2.95" fill="#fff"/><rect x="570.33" y="420.07" width="27.4" height="2.95" fill="#fff"/><rect x="553.03" y="412.45" width="44.7" height="2.95" fill="#fff"/><path d="M409.09,107.35H541.53a5.58,5.58,0,0,1,5.59,5.58V169.5a5.58,5.58,0,0,1-5.59,5.58h-102L428.11,191.4V175.08h-19a5.58,5.58,0,0,1-5.59-5.58V112.93A5.58,5.58,0,0,1,409.09,107.35Z" fill="#2f2e41"/><circle id="f7e24c9d-49a4-49c3-b542-df7e67f46b5d" data-name="SVGID" cx="516.25" cy="142.15" r="20.36" fill="#fff"/><g clip-path="url(#edfe23a0-9087-400d-9068-00f36d95d57f)"><path d="M513.31,143.23l-1.22,2.45s1.58,2.85,7.71-.51l-1.23-3.48Z" fill="#f9b499"/><path d="M524,164.15a28.93,28.93,0,0,1-11.45,1.72l-.06,3.8c2.55,2.49,6.94,3.32,6.94,3.32l.3.07a10,10,0,0,0,12.05-8.67c1.16-10.71-3.15-16.2-3.15-16.2-2.61-3.32-8.93-3.43-8.93-3.43-5.54,3.8-7.38.57-7.38.57a18.69,18.69,0,0,0-6.71,1.74c-1.18.83-5,10-5,10l5,14.16,7.59.42,1.78.12,1-2.26" fill="#f76d11"/><path d="M508.4,136a12.61,12.61,0,0,1-.52-3.82s-2.45.29,0-2.54c0,0,.17-.07-.27-.09,0,0-1.69-.12,1.08-1.84a11.44,11.44,0,0,1,9.59-1.17s.51-1.42,1.78-1c0,0,.39.64-.72,1.27,0,0,1.43-.12,1.63.79,0,0,0,.36-.87.24,0,0,3.28,1.14,1.89,7,0,0-1.85-.32-1.5,2.33,0,0-2,.83-2.25-2.21l-.16-3.61s-5.3,2.74-4.83.28a22.61,22.61,0,0,1-4.35,1.94l-.23,2.42Z" fill="#2f2e41"/><path d="M508.65,136s.5,8.43,6.88,7.78a5.72,5.72,0,0,0,4.94-6.6l-.31-3.87-.92-3.68-7.3.62-2.88,1.87-.62,1.84Z" fill="#f9b499"/><path d="M522.31,135s1.6.92,0,2.87a1.5,1.5,0,0,1-1.8.27l0-1s-.38-1.62.66-2.18A1.2,1.2,0,0,1,522.31,135Z" fill="#f9b499"/><ellipse cx="508.8" cy="137.4" rx="1.25" ry="1.44" fill="#f9b499"/></g><rect x="465.23" y="127" width="26" height="2.95" transform="translate(956.47 256.95) rotate(-180)" fill="#fff"/><rect x="415.61" y="127" width="44.63" height="2.95" transform="translate(875.84 256.95) rotate(-180)" fill="#fff"/><rect x="415.61" y="154.35" width="75.63" height="2.95" transform="translate(906.84 311.64) rotate(-180)" fill="#fff"/><rect x="474.14" y="136.59" width="17.09" height="2.48" transform="translate(965.38 275.65) rotate(-180)" fill="#fff"/><rect x="447.94" y="136.12" width="22.54" height="2.95" transform="translate(918.42 275.19) rotate(-180)" fill="#fff"/><rect x="453.42" y="145.24" width="37.81" height="2.95" transform="translate(944.66 293.43) rotate(-180)" fill="#fff"/><rect x="415.61" y="145.24" width="30.97" height="2.95" transform="translate(862.18 293.43) rotate(-180)" fill="#fff"/><path d="M520.25,232c-1.65-.47-2.68-.68-2.69-.69l.09-.45s1.06.22,2.72.69Z" fill="#ccc"/><path d="M594.5,323.38l-.41-.23a45.16,45.16,0,0,0,2.43-4.94l.43.17A45.3,45.3,0,0,1,594.5,323.38Zm4.25-10.27-.45-.12a42.64,42.64,0,0,0,1.08-5.4l.46.06A41.86,41.86,0,0,1,598.75,313.11Zm1.47-11h-.47v-.17a45.94,45.94,0,0,0-.32-5.34l.47,0a46.79,46.79,0,0,1,.32,5.39Zm-1.75-10.94a50.59,50.59,0,0,0-1.55-5.29l.44-.16a51.76,51.76,0,0,1,1.57,5.35Zm-3.64-10.4a37,37,0,0,0-2.51-4.58l-.16-.25.39-.26.16.25a37.86,37.86,0,0,1,2.54,4.64Zm-5.79-9.4c-1.11-1.52-2.25-3-3.4-4.35l.35-.3c1.16,1.38,2.31,2.85,3.43,4.38Zm-54.35-.26a10.33,10.33,0,0,1-2.57-2.24,12.21,12.21,0,0,1-1.3-1.81l.4-.24a12.07,12.07,0,0,0,1.25,1.75,10.39,10.39,0,0,0,2.45,2.14Zm5.48,0-.24-.4a12.28,12.28,0,0,0,3.72-3.92l.39.26A12.76,12.76,0,0,1,540.17,271.09Zm41.75-8.16c-1.32-1.33-2.69-2.59-4.06-3.74l.3-.35c1.38,1.15,2.76,2.42,4.09,3.77Zm-35.32-.88-.43-.17c.15-.37.22-.58.23-.58a23.33,23.33,0,0,0,.36-4c0-.29,0-.57,0-.84l.47,0c0,.28,0,.57,0,.86a22.22,22.22,0,0,1-.38,4.08A6.57,6.57,0,0,1,546.6,262.05Zm-16.29-.4-.45-.1a10.83,10.83,0,0,1,2.71-4.9l.35.31A10.44,10.44,0,0,0,530.31,261.65Zm43.14-5.76a46.11,46.11,0,0,0-4.76-2.76l.2-.42a47.22,47.22,0,0,1,4.82,2.79Zm-36.36-2.48-.26-.38a31,31,0,0,1,3.13-1.85,17.89,17.89,0,0,1,1.84-.73l.16.44a16.31,16.31,0,0,0-1.76.7h0A26.44,26.44,0,0,0,537.09,253.41Zm8.65-2.27a19.93,19.93,0,0,0-2.48-4.86l.38-.27a20.38,20.38,0,0,1,2.54,5ZM563.6,251a37.58,37.58,0,0,0-5.34-1.34l.08-.46a36.8,36.8,0,0,1,5.4,1.36Zm-16.3-1.44-.07-.46a34.51,34.51,0,0,1,5.2-.4h.36v.47h-.35A33.69,33.69,0,0,0,547.3,249.59Zm-7.65-7.44a34.66,34.66,0,0,0-4.34-3.38l.26-.39a34.78,34.78,0,0,1,4.39,3.43ZM530.54,236c-1.6-.8-3.3-1.55-5.06-2.22l.17-.44c1.77.68,3.49,1.44,5.09,2.24Z" fill="#ccc"/><path d="M589.76,330.29l-.36-.29c.59-.73,1.16-1.47,1.7-2.21l.37.28C590.94,328.81,590.36,329.56,589.76,330.29Z" fill="#ccc"/><polygon points="480.8 243.5 448.06 210.03 517.6 210.03 503.11 222.23 452.02 211.19 498.85 228.09 492.76 233.28 480.8 243.5" fill="#ccc"/><polygon points="505.24 242.26 492.76 233.36 498.85 228.16 452.02 211.26 503.11 222.3 505.24 242.26" fill="#ccc"/><polygon points="505.24 242.26 492.76 233.36 498.85 228.16 452.02 211.26 503.11 222.3 505.24 242.26" opacity="0.2"/><path d="M274.16,211.38s1.06-3.36-.25-5.64c0,0,14.2,5.17,22.52-.63C296.43,205.11,288.15,212.87,274.16,211.38Z" fill="#f4a48e"/><ellipse cx="278.16" cy="162.4" rx="33.65" ry="46.63" transform="translate(-36.49 93.55) rotate(-17.94)" fill="#f9b499"/><path d="M247.26,103.9c2.81-8.88,12.49-22,45.46-18.15,0,0,63.1.87,55.27,67.46,0,0-11.48,35.2,29.43,53.58a79.11,79.11,0,0,1,25.35,17.78,69,69,0,0,1,10.71,14.49A26.81,26.81,0,0,1,405,273.49c-7.4,5.18-18.62,11.76-22.59,3.32,0,0-1.35-4.67-3.8-11.19a102,102,0,0,0-30.5-42.52c-11.74-9.74-28.95-28.11-26.63-50.74,0,0,1.45-21-20.15-26a34.75,34.75,0,0,0-9.1-.79c-7.59.27-32.34-1.14-44.27-29.43A17.66,17.66,0,0,1,247.26,103.9Z" fill="#2f2e41"/><path d="M270.52,100.55a12.17,12.17,0,0,0,.92,3.12c.24.49.43,1,.7,1.48l.8,1.42.92,1.35c.15.22.29.46.46.67l.52.63,1,1.27,1.13,1.17a51.7,51.7,0,0,0,10.31,7.94c.93.55,1.9,1.05,2.85,1.57s1.9,1.06,2.9,1.49c2,.89,3.93,1.88,6,2.61l3,1.19.76.29c.25.1.51.18.77.26l1.55.51,6.23,2A38.48,38.48,0,0,1,331.48,146a36.92,36.92,0,0,1,4.67,12.33,37.89,37.89,0,0,1,.08,13.18v0a49.82,49.82,0,0,0,.32,8.45,62.15,62.15,0,0,0,1.55,8.34,63.49,63.49,0,0,0,2.66,8.07,59.81,59.81,0,0,0,3.79,7.6,58.15,58.15,0,0,0,10.74,13.13,68,68,0,0,0,14,9.65A66,66,0,0,1,355,217.38a56.7,56.7,0,0,1-11-13.09,58.76,58.76,0,0,1-6.69-15.78,61.89,61.89,0,0,1-1.61-8.44,51.6,51.6,0,0,1-.36-8.62h0v0a36.92,36.92,0,0,0-4.67-24.92,37.67,37.67,0,0,0-19.58-16.18l-6.2-2.1-1.55-.53-.78-.26-.76-.31-3-1.23c-2.05-.76-4-1.78-6-2.7-1-.45-1.95-1-2.91-1.53s-1.92-1-2.86-1.62a50.91,50.91,0,0,1-10.25-8.18l-1.12-1.2-1-1.3-.51-.65a8,8,0,0,1-.45-.68l-.9-1.37L272,105.2c-.26-.48-.44-1-.67-1.5A12.75,12.75,0,0,1,270.52,100.55Z" opacity="0.2"/><ellipse cx="246.15" cy="169.36" rx="6.53" ry="9.11" transform="translate(-34.97 68.16) rotate(-14.73)" fill="#f9b499"/><path d="M689.14,402.57l2.34-4.68s18.28,4.38,31.23-3.88C722.71,394,706.51,410.22,689.14,402.57Z" fill="#f4a48e"/><path d="M659.48,347.08s-4.27-14.05-3.5-25.7c0,0-16.49,1.94-.09-17.08,0,0,1.16-.51-1.84-.65,0,0-11.38-.79,7.25-12.37,0,0,28.34-19.82,64.52-7.85,0,0,3.46-9.58,12-6.92,0,0,2.66,4.26-4.79,8.52,0,0,9.58-.8,10.91,5.32,0,0,.26,2.39-5.86,1.6,0,0,22.09,7.71,12.78,47.36,0,0-12.51-2.13-10.12,15.7,0,0-13.57,5.59-15.16-14.9l-1.07-24.23s-35.65,18.37-32.46,1.88c0,0-20,11.17-29.27,13l-1.6,16.3Z" fill="#2f2e41"/><path d="M661.16,347.09s3.4,56.68,46.3,52.29c0,0,37.19-4.33,33.26-44.37l-2.12-26.08-6.19-24.74-49.09,4.19L664,321l-4.19,12.37Z" fill="#f9b499"/><path d="M753.13,340.31s10.74,6.18,0,19.35c0,0-4.71,5.39-12.12,1.8l-.29-6.45s-2.54-10.91,4.45-14.7C745.17,340.31,749.5,337.81,753.13,340.31Z" fill="#f9b499"/><ellipse cx="662.16" cy="356.47" rx="8.38" ry="9.71" fill="#f9b499"/></svg>